<?xml version="1.0" encoding="UTF-8" standalone="no"?>
<!-- Created with Inkscape (http://www.inkscape.org/) -->

<svg
   width="200"
   height="100"
   viewBox="0 0 52.916667 26.458333"
   version="1.1"
   id="svg5"
   xml:space="preserve"
   inkscape:version="1.2.2 (b0a84865, 2022-12-01)"
   sodipodi:docname="LogoParrot.svg"
   xmlns:inkscape="http://www.inkscape.org/namespaces/inkscape"
   xmlns:sodipodi="http://sodipodi.sourceforge.net/DTD/sodipodi-0.dtd"
   xmlns:xlink="http://www.w3.org/1999/xlink"
   xmlns="http://www.w3.org/2000/svg"
   xmlns:svg="http://www.w3.org/2000/svg"><sodipodi:namedview
     id="namedview7"
     pagecolor="#ffffff"
     bordercolor="#000000"
     borderopacity="0.25"
     inkscape:showpageshadow="2"
     inkscape:pageopacity="0.0"
     inkscape:pagecheckerboard="0"
     inkscape:deskcolor="#d1d1d1"
     inkscape:document-units="mm"
     showgrid="false"
     inkscape:zoom="4.1763982"
     inkscape:cx="135.88264"
     inkscape:cy="21.549669"
     inkscape:window-width="1920"
     inkscape:window-height="999"
     inkscape:window-x="0"
     inkscape:window-y="25"
     inkscape:window-maximized="0"
     inkscape:current-layer="layer3" /><defs
     id="defs2"><linearGradient
       id="linearGradient17432"
       inkscape:swatch="solid"><stop
         style="stop-color:#020283;stop-opacity:1;"
         offset="0"
         id="stop17430" /></linearGradient><linearGradient
       inkscape:collect="always"
       id="linearGradient12640"><stop
         style="stop-color:#0202a4;stop-opacity:1;"
         offset="0"
         id="stop12644" /><stop
         style="stop-color:#0101d5;stop-opacity:1;"
         offset="0.19602273"
         id="stop12636" /><stop
         style="stop-color:#0101d5;stop-opacity:0;"
         offset="1"
         id="stop12638" /></linearGradient><linearGradient
       inkscape:collect="always"
       id="linearGradient11250"><stop
         style="stop-color:#050505;stop-opacity:1;"
         offset="0.00568182"
         id="stop11254" /><stop
         style="stop-color:#0000ff;stop-opacity:1;"
         offset="0.89772731"
         id="stop11246" /><stop
         style="stop-color:#0000ff;stop-opacity:0;"
         offset="1"
         id="stop11248" /></linearGradient><inkscape:path-effect
       effect="spiro"
       id="path-effect10668"
       is_visible="true"
       lpeversion="1" /><linearGradient
       inkscape:collect="always"
       xlink:href="#linearGradient11250"
       id="linearGradient11252"
       x1="4.2012629"
       y1="12.494349"
       x2="35.816301"
       y2="12.494349"
       gradientUnits="userSpaceOnUse"
       gradientTransform="translate(1.7996101,-3.5992201)" /><linearGradient
       inkscape:collect="always"
       xlink:href="#linearGradient12640"
       id="linearGradient12642"
       x1="19.041032"
       y1="13.409997"
       x2="45.802978"
       y2="13.409997"
       gradientUnits="userSpaceOnUse"
       gradientTransform="translate(1.7996101,-3.5992201)" /></defs><g
     inkscape:groupmode="layer"
     id="layer3"
     inkscape:label="Layer 1"
     sodipodi:insensitive="true"><rect
       style="fill:#d9d9dd;fill-opacity:1;stroke-width:0.331586"
       id="rect13461"
       width="52.916668"
       height="26.458334"
       x="-0.079190046"
       y="0.063352033" /></g><g
     inkscape:groupmode="layer"
     id="layer5"
     inkscape:label="texte"
     sodipodi:insensitive="true"><text
       xml:space="preserve"
       style="font-size:3.88056px;fill:#020283;fill-opacity:1;stroke:none;stroke-width:0.265;stroke-dasharray:none;stroke-opacity:1"
       x="7.6645231"
       y="14.10521"
       id="text13725-7"
       sodipodi:insensitive="true"><tspan
         sodipodi:role="line"
         id="tspan13723-5"
         style="font-style:normal;font-variant:normal;font-weight:normal;font-stretch:normal;font-size:3.88056px;font-family:'Corsiva Hebrew';-inkscape-font-specification:'Corsiva Hebrew';fill:#020283;fill-opacity:1;stroke:none;stroke-width:0.265;stroke-dasharray:none;stroke-opacity:1"
         x="7.6645231"
         y="14.10521">GARAGE V. PARR  T</tspan></text><path
       style="opacity:1;fill:#020283;fill-opacity:1;stroke:#020283;stroke-width:0.15;stroke-dasharray:none;stroke-opacity:1"
       d="m 41.620434,14.316871 c -0.08771,-0.03339 -0.154043,-0.04208 -0.306967,-0.04024 -0.214688,0.0026 -0.34912,-0.03441 -0.530619,-0.146041 -0.314873,-0.193657 -0.506476,-0.673126 -0.506476,-1.267401 0,-0.475734 0.114734,-0.855355 0.352205,-1.16534 0.102095,-0.13327 0.200933,-0.212623 0.354359,-0.284499 0.118322,-0.05543 0.120274,-0.05562 0.576466,-0.05562 0.456753,0 0.457999,1.21e-4 0.577086,0.0559 0.186176,0.08721 0.355838,0.274181 0.479658,0.528598 0.134038,0.275412 0.184917,0.486104 0.198778,0.823146 0.02286,0.555686 -0.130394,1.034059 -0.428595,1.33791 -0.169035,0.172237 -0.3043,0.239365 -0.501423,0.248837 -0.118687,0.0057 -0.177435,-0.0021 -0.264472,-0.03526 z m 0.438803,-0.0899 c 0.223049,-0.0932 0.431978,-0.337933 0.537546,-0.629679 0.106786,-0.295107 0.112075,-0.330362 0.111639,-0.744268 -2.65e-4,-0.322003 -0.0073,-0.419695 -0.03697,-0.518773 -0.101481,-0.338892 -0.205547,-0.526573 -0.384612,-0.693638 -0.196379,-0.183219 -0.247073,-0.195716 -0.7615,-0.187731 -0.415914,0.0065 -0.425788,0.0076 -0.538935,0.06318 -0.245398,0.120511 -0.455975,0.430213 -0.560324,0.824091 -0.04566,0.172364 -0.05239,0.239032 -0.05277,0.523048 -2.64e-4,0.287393 0.0058,0.34879 0.05267,0.524385 0.09959,0.372892 0.250671,0.588348 0.498287,0.710581 0.09709,0.04793 0.164251,0.06541 0.279731,0.07282 0.08358,0.0054 0.151966,0.0042 0.151966,-0.0025 0,-0.0068 -0.0375,-0.05282 -0.08333,-0.102349 -0.295283,-0.31908 -0.446796,-0.883334 -0.388181,-1.445643 0.03561,-0.341577 0.165135,-0.707208 0.317598,-0.896513 0.04047,-0.05025 0.05391,-0.05636 0.07609,-0.03459 0.02231,0.0219 0.01895,0.03936 -0.0196,0.101721 -0.09488,0.153461 -0.187008,0.364995 -0.232164,0.533024 -0.04004,0.148996 -0.04647,0.222186 -0.04647,0.528944 0,0.408532 0.03298,0.57619 0.170064,0.864623 0.07436,0.156463 0.245954,0.373113 0.33197,0.419147 0.05575,0.02984 0.261419,-0.0708 0.399222,-0.195349 0.256564,-0.231884 0.394348,-0.543045 0.423386,-0.956138 0.04493,-0.639185 -0.337002,-1.082418 -0.682328,-0.791844 -0.08962,0.07541 -0.193392,0.298522 -0.225124,0.48403 -0.0777,0.454247 0.169585,0.946711 0.351195,0.699391 0.100711,-0.137152 0.126444,-0.247903 0.126444,-0.544203 0,-0.222272 -0.0074,-0.293253 -0.03873,-0.372224 -0.02787,-0.07022 -0.03253,-0.103774 -0.01662,-0.119679 0.08015,-0.08015 0.15517,0.157755 0.15511,0.491903 -5.6e-5,0.308476 -0.05199,0.488995 -0.178742,0.621279 -0.07204,0.07518 -0.09979,0.09076 -0.161655,0.09076 -0.107876,0 -0.212088,-0.110618 -0.278133,-0.295231 -0.04472,-0.124999 -0.05086,-0.17533 -0.05086,-0.41681 0,-0.288755 0.02611,-0.415348 0.116745,-0.565661 0.05313,-0.08814 0.227036,-0.217236 0.33591,-0.249368 0.231984,-0.06847 0.493461,0.148358 0.596614,0.494729 0.05759,0.193368 0.05723,0.535373 -7.94e-4,0.779789 -0.04074,0.171524 -0.146304,0.411302 -0.226806,0.515152 -0.11979,0.154535 -0.345242,0.351933 -0.452234,0.39596 -0.01622,0.0067 -0.01405,0.01642 0.007,0.03128 0.04502,0.03184 0.295455,0.02681 0.377772,-0.0076 z"
       id="path14815"
       sodipodi:insensitive="true" /></g><path
     style="fill:url(#linearGradient11252);fill-opacity:1;stroke-width:0.264583"
     d="m 7.1146746,13.821349 c 0,0 -2.5862423,-4.3514551 0.1231543,-8.1692414 0.9441836,0.2463088 3.7356831,1.4368003 6.7734931,0.9031313 1.190491,-0.2052565 8.990326,-2.603065 11.494408,-2.5862414 2.291198,0.015393 2.630792,0.1035037 2.630792,0.1035037 0,0 5.661604,0.5943717 9.47939,3.3037677 C 33.798126,6.1447252 31.211884,4.8721297 26.90148,4.9952842 24.93101,5.0363362 22.960539,5.241593 18.362776,6.5962909 16.967026,6.9657539 14.257629,7.7457319 12.164005,7.5815259 10.07038,7.4173199 9.2082993,7.1299599 7.4841377,6.5962909 6.9504686,7.8278349 5.7189248,10.126718 7.1146746,13.821349 Z"
     id="path10735"
     sodipodi:nodetypes="cccsccccscc"
     sodipodi:insensitive="true" /><path
     style="fill:url(#linearGradient12642);fill-opacity:1;stroke-width:0.264583"
     d="m 20.840646,6.7920769 2.409155,0.986883 c 0,0 2.205974,0.754675 3.947532,0.899805 1.741559,0.145129 2.902598,0.290259 7.720909,-0.551494 1.596427,-0.290259 4.673179,-0.957857 7.63383,-0.174155 2.960647,0.783701 5.050517,2.9896741 5.050517,2.9896741 l -0.174157,1.886688 -0.08708,-1.79961 c 0,0 -3.512142,-2.4962331 -7.285518,-2.3511031 -1.567402,0.02903 -6.095453,0.986883 -9.868829,1.015908 -0.406363,0.05805 -3.512142,0.08708 -5.921298,-0.928831 -2.409155,-1.015908 -3.425064,-1.973765 -3.425064,-1.973765 z"
     id="path11021"
     sodipodi:nodetypes="ccscscccccscc"
     sodipodi:insensitive="true" /></svg>
